<mxfile host="app.diagrams.net" agent="Mozilla/5.0 (Windows NT 10.0; Win64; x64) AppleWebKit/537.36 (KHTML, like Gecko) Chrome/135.0.0.0 Safari/537.36" version="26.2.13">
  <diagram name="Page-1" id="O7iXT2IoPhU9W17zgHiO">
    <mxGraphModel dx="2037" dy="695" grid="1" gridSize="10" guides="1" tooltips="1" connect="1" arrows="1" fold="1" page="1" pageScale="1" pageWidth="850" pageHeight="1100" math="0" shadow="0">
      <root>
        <mxCell id="0" />
        <mxCell id="1" parent="0" />
        <mxCell id="uvv2mwFOaot9U9cJfKDP-1" value="Lowongan Kerja Rasaprima" style="swimlane;childLayout=stackLayout;resizeParent=1;resizeParentMax=0;startSize=20;html=1;" parent="1" vertex="1">
          <mxGeometry x="-490" y="10" width="410" height="540" as="geometry" />
        </mxCell>
        <mxCell id="uvv2mwFOaot9U9cJfKDP-2" value="Rekruter" style="swimlane;startSize=20;html=1;" parent="uvv2mwFOaot9U9cJfKDP-1" vertex="1">
          <mxGeometry y="20" width="120" height="520" as="geometry" />
        </mxCell>
        <mxCell id="uvv2mwFOaot9U9cJfKDP-7" value="" style="edgeStyle=orthogonalEdgeStyle;rounded=0;orthogonalLoop=1;jettySize=auto;html=1;" parent="uvv2mwFOaot9U9cJfKDP-2" source="uvv2mwFOaot9U9cJfKDP-5" target="uvv2mwFOaot9U9cJfKDP-6" edge="1">
          <mxGeometry relative="1" as="geometry" />
        </mxCell>
        <mxCell id="uvv2mwFOaot9U9cJfKDP-5" value="Start" style="strokeWidth=2;html=1;shape=mxgraph.flowchart.start_2;whiteSpace=wrap;" parent="uvv2mwFOaot9U9cJfKDP-2" vertex="1">
          <mxGeometry x="40" y="30" width="40" height="40" as="geometry" />
        </mxCell>
        <mxCell id="uvv2mwFOaot9U9cJfKDP-6" value="Login" style="whiteSpace=wrap;html=1;strokeWidth=2;" parent="uvv2mwFOaot9U9cJfKDP-2" vertex="1">
          <mxGeometry x="10" y="90" width="100" height="50" as="geometry" />
        </mxCell>
        <mxCell id="uvv2mwFOaot9U9cJfKDP-26" value="" style="edgeStyle=orthogonalEdgeStyle;rounded=0;orthogonalLoop=1;jettySize=auto;html=1;" parent="uvv2mwFOaot9U9cJfKDP-2" source="uvv2mwFOaot9U9cJfKDP-19" target="uvv2mwFOaot9U9cJfKDP-25" edge="1">
          <mxGeometry relative="1" as="geometry" />
        </mxCell>
        <mxCell id="uvv2mwFOaot9U9cJfKDP-19" value="Home Page" style="whiteSpace=wrap;html=1;strokeWidth=2;aspect=fixed;" parent="uvv2mwFOaot9U9cJfKDP-2" vertex="1">
          <mxGeometry x="10" y="165" width="100" height="50" as="geometry" />
        </mxCell>
        <mxCell id="uvv2mwFOaot9U9cJfKDP-25" value="Add&lt;div&gt;Job Vacancy&lt;/div&gt;" style="shape=parallelogram;perimeter=parallelogramPerimeter;whiteSpace=wrap;html=1;fixedSize=1;strokeWidth=2;aspect=fixed;" parent="uvv2mwFOaot9U9cJfKDP-2" vertex="1">
          <mxGeometry x="10" y="270" width="100" height="50" as="geometry" />
        </mxCell>
        <mxCell id="uvv2mwFOaot9U9cJfKDP-46" value="" style="edgeStyle=orthogonalEdgeStyle;rounded=0;orthogonalLoop=1;jettySize=auto;html=1;" parent="uvv2mwFOaot9U9cJfKDP-2" source="uvv2mwFOaot9U9cJfKDP-41" target="uvv2mwFOaot9U9cJfKDP-45" edge="1">
          <mxGeometry relative="1" as="geometry" />
        </mxCell>
        <mxCell id="uvv2mwFOaot9U9cJfKDP-41" value="Select Talent" style="shape=parallelogram;perimeter=parallelogramPerimeter;whiteSpace=wrap;html=1;fixedSize=1;strokeWidth=2;aspect=fixed;" parent="uvv2mwFOaot9U9cJfKDP-2" vertex="1">
          <mxGeometry x="10" y="375" width="100" height="50" as="geometry" />
        </mxCell>
        <mxCell id="uvv2mwFOaot9U9cJfKDP-45" value="End" style="ellipse;whiteSpace=wrap;html=1;strokeWidth=2;aspect=fixed;" parent="uvv2mwFOaot9U9cJfKDP-2" vertex="1">
          <mxGeometry x="40" y="460" width="40" height="40" as="geometry" />
        </mxCell>
        <mxCell id="uvv2mwFOaot9U9cJfKDP-3" value="System" style="swimlane;startSize=20;html=1;" parent="uvv2mwFOaot9U9cJfKDP-1" vertex="1">
          <mxGeometry x="120" y="20" width="170" height="520" as="geometry" />
        </mxCell>
        <mxCell id="uvv2mwFOaot9U9cJfKDP-17" value="" style="rhombus;whiteSpace=wrap;html=1;strokeWidth=2;aspect=fixed;" parent="uvv2mwFOaot9U9cJfKDP-3" vertex="1">
          <mxGeometry x="65" y="125" width="40" height="40" as="geometry" />
        </mxCell>
        <mxCell id="uvv2mwFOaot9U9cJfKDP-37" value="" style="edgeStyle=orthogonalEdgeStyle;rounded=0;orthogonalLoop=1;jettySize=auto;html=1;" parent="uvv2mwFOaot9U9cJfKDP-3" source="uvv2mwFOaot9U9cJfKDP-24" target="uvv2mwFOaot9U9cJfKDP-36" edge="1">
          <mxGeometry relative="1" as="geometry" />
        </mxCell>
        <mxCell id="uvv2mwFOaot9U9cJfKDP-24" value="Database" style="strokeWidth=2;html=1;shape=mxgraph.flowchart.database;whiteSpace=wrap;" parent="uvv2mwFOaot9U9cJfKDP-3" vertex="1">
          <mxGeometry x="55" y="285" width="60" height="60" as="geometry" />
        </mxCell>
        <mxCell id="uvv2mwFOaot9U9cJfKDP-13" value="" style="edgeStyle=orthogonalEdgeStyle;rounded=0;orthogonalLoop=1;jettySize=auto;html=1;entryX=0.5;entryY=0;entryDx=0;entryDy=0;" parent="uvv2mwFOaot9U9cJfKDP-3" source="uvv2mwFOaot9U9cJfKDP-11" target="uvv2mwFOaot9U9cJfKDP-17" edge="1">
          <mxGeometry relative="1" as="geometry">
            <mxPoint x="135" y="115.00000000000011" as="targetPoint" />
            <Array as="points">
              <mxPoint x="85" y="115" />
            </Array>
          </mxGeometry>
        </mxCell>
        <mxCell id="uvv2mwFOaot9U9cJfKDP-36" value="Sort and Match Talent with Job Vacancy" style="whiteSpace=wrap;html=1;strokeWidth=2;aspect=fixed;" parent="uvv2mwFOaot9U9cJfKDP-3" vertex="1">
          <mxGeometry x="35" y="375" width="100" height="50" as="geometry" />
        </mxCell>
        <mxCell id="uvv2mwFOaot9U9cJfKDP-40" value="Authentication" style="text;html=1;align=center;verticalAlign=middle;whiteSpace=wrap;rounded=0;" parent="uvv2mwFOaot9U9cJfKDP-3" vertex="1">
          <mxGeometry x="55" y="165" width="60" height="30" as="geometry" />
        </mxCell>
        <mxCell id="uvv2mwFOaot9U9cJfKDP-4" value="Talent" style="swimlane;startSize=20;html=1;" parent="uvv2mwFOaot9U9cJfKDP-1" vertex="1">
          <mxGeometry x="290" y="20" width="120" height="520" as="geometry" />
        </mxCell>
        <mxCell id="uvv2mwFOaot9U9cJfKDP-12" value="" style="edgeStyle=orthogonalEdgeStyle;rounded=0;orthogonalLoop=1;jettySize=auto;html=1;" parent="uvv2mwFOaot9U9cJfKDP-4" source="uvv2mwFOaot9U9cJfKDP-10" target="uvv2mwFOaot9U9cJfKDP-11" edge="1">
          <mxGeometry relative="1" as="geometry" />
        </mxCell>
        <mxCell id="uvv2mwFOaot9U9cJfKDP-10" value="Start" style="strokeWidth=2;html=1;shape=mxgraph.flowchart.start_2;whiteSpace=wrap;" parent="uvv2mwFOaot9U9cJfKDP-4" vertex="1">
          <mxGeometry x="40" y="30" width="40" height="40" as="geometry" />
        </mxCell>
        <mxCell id="uvv2mwFOaot9U9cJfKDP-11" value="Login" style="whiteSpace=wrap;html=1;strokeWidth=2;" parent="uvv2mwFOaot9U9cJfKDP-4" vertex="1">
          <mxGeometry x="10" y="90" width="100" height="50" as="geometry" />
        </mxCell>
        <mxCell id="uvv2mwFOaot9U9cJfKDP-30" value="" style="edgeStyle=orthogonalEdgeStyle;rounded=0;orthogonalLoop=1;jettySize=auto;html=1;" parent="uvv2mwFOaot9U9cJfKDP-4" source="uvv2mwFOaot9U9cJfKDP-21" target="uvv2mwFOaot9U9cJfKDP-29" edge="1">
          <mxGeometry relative="1" as="geometry" />
        </mxCell>
        <mxCell id="uvv2mwFOaot9U9cJfKDP-21" value="Fill Profile" style="whiteSpace=wrap;html=1;strokeWidth=2;aspect=fixed;" parent="uvv2mwFOaot9U9cJfKDP-4" vertex="1">
          <mxGeometry x="10" y="165" width="100" height="50" as="geometry" />
        </mxCell>
        <mxCell id="uvv2mwFOaot9U9cJfKDP-34" value="" style="edgeStyle=orthogonalEdgeStyle;rounded=0;orthogonalLoop=1;jettySize=auto;html=1;" parent="uvv2mwFOaot9U9cJfKDP-4" source="uvv2mwFOaot9U9cJfKDP-29" target="uvv2mwFOaot9U9cJfKDP-33" edge="1">
          <mxGeometry relative="1" as="geometry" />
        </mxCell>
        <mxCell id="uvv2mwFOaot9U9cJfKDP-29" value="Find&lt;div&gt;Job Vacancy&lt;/div&gt;" style="shape=parallelogram;perimeter=parallelogramPerimeter;whiteSpace=wrap;html=1;fixedSize=1;strokeWidth=2;aspect=fixed;" parent="uvv2mwFOaot9U9cJfKDP-4" vertex="1">
          <mxGeometry x="10" y="240" width="100" height="50" as="geometry" />
        </mxCell>
        <mxCell id="uvv2mwFOaot9U9cJfKDP-44" value="" style="edgeStyle=orthogonalEdgeStyle;rounded=0;orthogonalLoop=1;jettySize=auto;html=1;" parent="uvv2mwFOaot9U9cJfKDP-4" source="uvv2mwFOaot9U9cJfKDP-33" target="uvv2mwFOaot9U9cJfKDP-43" edge="1">
          <mxGeometry relative="1" as="geometry" />
        </mxCell>
        <mxCell id="uvv2mwFOaot9U9cJfKDP-33" value="Apply" style="whiteSpace=wrap;html=1;strokeWidth=2;aspect=fixed;" parent="uvv2mwFOaot9U9cJfKDP-4" vertex="1">
          <mxGeometry x="10" y="320" width="100" height="50" as="geometry" />
        </mxCell>
        <mxCell id="uvv2mwFOaot9U9cJfKDP-43" value="End" style="ellipse;whiteSpace=wrap;html=1;strokeWidth=2;aspect=fixed;" parent="uvv2mwFOaot9U9cJfKDP-4" vertex="1">
          <mxGeometry x="40" y="410" width="40" height="40" as="geometry" />
        </mxCell>
        <mxCell id="uvv2mwFOaot9U9cJfKDP-9" value="" style="edgeStyle=orthogonalEdgeStyle;rounded=0;orthogonalLoop=1;jettySize=auto;html=1;entryX=0.5;entryY=0;entryDx=0;entryDy=0;" parent="uvv2mwFOaot9U9cJfKDP-1" source="uvv2mwFOaot9U9cJfKDP-6" target="uvv2mwFOaot9U9cJfKDP-17" edge="1">
          <mxGeometry relative="1" as="geometry">
            <mxPoint x="155" y="135.0000000000001" as="targetPoint" />
            <Array as="points">
              <mxPoint x="205" y="135" />
            </Array>
          </mxGeometry>
        </mxCell>
        <mxCell id="uvv2mwFOaot9U9cJfKDP-20" value="" style="edgeStyle=orthogonalEdgeStyle;rounded=0;orthogonalLoop=1;jettySize=auto;html=1;" parent="uvv2mwFOaot9U9cJfKDP-1" source="uvv2mwFOaot9U9cJfKDP-17" target="uvv2mwFOaot9U9cJfKDP-19" edge="1">
          <mxGeometry relative="1" as="geometry" />
        </mxCell>
        <mxCell id="uvv2mwFOaot9U9cJfKDP-22" style="edgeStyle=orthogonalEdgeStyle;rounded=0;orthogonalLoop=1;jettySize=auto;html=1;" parent="uvv2mwFOaot9U9cJfKDP-1" source="uvv2mwFOaot9U9cJfKDP-17" target="uvv2mwFOaot9U9cJfKDP-21" edge="1">
          <mxGeometry relative="1" as="geometry" />
        </mxCell>
        <mxCell id="uvv2mwFOaot9U9cJfKDP-27" style="edgeStyle=orthogonalEdgeStyle;rounded=0;orthogonalLoop=1;jettySize=auto;html=1;exitX=1;exitY=0.5;exitDx=0;exitDy=0;entryX=0;entryY=0.15;entryDx=0;entryDy=0;entryPerimeter=0;" parent="uvv2mwFOaot9U9cJfKDP-1" source="uvv2mwFOaot9U9cJfKDP-25" target="uvv2mwFOaot9U9cJfKDP-24" edge="1">
          <mxGeometry relative="1" as="geometry" />
        </mxCell>
        <mxCell id="uvv2mwFOaot9U9cJfKDP-28" style="edgeStyle=orthogonalEdgeStyle;rounded=0;orthogonalLoop=1;jettySize=auto;html=1;entryX=1;entryY=0.5;entryDx=0;entryDy=0;entryPerimeter=0;" parent="uvv2mwFOaot9U9cJfKDP-1" source="uvv2mwFOaot9U9cJfKDP-21" target="uvv2mwFOaot9U9cJfKDP-24" edge="1">
          <mxGeometry relative="1" as="geometry">
            <Array as="points">
              <mxPoint x="260" y="210" />
              <mxPoint x="260" y="335" />
            </Array>
          </mxGeometry>
        </mxCell>
        <mxCell id="uvv2mwFOaot9U9cJfKDP-35" style="edgeStyle=orthogonalEdgeStyle;rounded=0;orthogonalLoop=1;jettySize=auto;html=1;entryX=1;entryY=0.5;entryDx=0;entryDy=0;entryPerimeter=0;" parent="uvv2mwFOaot9U9cJfKDP-1" source="uvv2mwFOaot9U9cJfKDP-33" target="uvv2mwFOaot9U9cJfKDP-24" edge="1">
          <mxGeometry relative="1" as="geometry" />
        </mxCell>
        <mxCell id="uvv2mwFOaot9U9cJfKDP-42" value="" style="edgeStyle=orthogonalEdgeStyle;rounded=0;orthogonalLoop=1;jettySize=auto;html=1;" parent="uvv2mwFOaot9U9cJfKDP-1" source="uvv2mwFOaot9U9cJfKDP-36" target="uvv2mwFOaot9U9cJfKDP-41" edge="1">
          <mxGeometry relative="1" as="geometry" />
        </mxCell>
        <mxCell id="XnMNRkMWb_xgs376mnl2-2" value="Talent" style="rounded=1;arcSize=10;whiteSpace=wrap;html=1;align=center;" vertex="1" parent="1">
          <mxGeometry x="375" y="800" width="100" height="40" as="geometry" />
        </mxCell>
        <mxCell id="XnMNRkMWb_xgs376mnl2-4" value="Education" style="rounded=1;arcSize=10;whiteSpace=wrap;html=1;align=center;" vertex="1" parent="1">
          <mxGeometry x="760" y="710" width="100" height="40" as="geometry" />
        </mxCell>
        <mxCell id="XnMNRkMWb_xgs376mnl2-5" value="Name" style="ellipse;whiteSpace=wrap;html=1;align=center;" vertex="1" parent="1">
          <mxGeometry x="310" y="720" width="100" height="40" as="geometry" />
        </mxCell>
        <mxCell id="XnMNRkMWb_xgs376mnl2-6" value="Number Phone" style="ellipse;whiteSpace=wrap;html=1;align=center;" vertex="1" parent="1">
          <mxGeometry x="440" y="720" width="100" height="40" as="geometry" />
        </mxCell>
        <mxCell id="XnMNRkMWb_xgs376mnl2-7" value="Email" style="ellipse;whiteSpace=wrap;html=1;align=center;" vertex="1" parent="1">
          <mxGeometry x="440" y="870" width="100" height="40" as="geometry" />
        </mxCell>
        <mxCell id="XnMNRkMWb_xgs376mnl2-8" value="Skills" style="rounded=1;arcSize=10;whiteSpace=wrap;html=1;align=center;" vertex="1" parent="1">
          <mxGeometry x="737.33" y="890" width="100" height="40" as="geometry" />
        </mxCell>
        <mxCell id="XnMNRkMWb_xgs376mnl2-9" value="Certification" style="rounded=1;arcSize=10;whiteSpace=wrap;html=1;align=center;" vertex="1" parent="1">
          <mxGeometry x="587.33" y="980" width="100" height="40" as="geometry" />
        </mxCell>
        <mxCell id="XnMNRkMWb_xgs376mnl2-10" value="Experiences" style="rounded=1;arcSize=10;whiteSpace=wrap;html=1;align=center;" vertex="1" parent="1">
          <mxGeometry x="590" y="560" width="100" height="40" as="geometry" />
        </mxCell>
        <mxCell id="XnMNRkMWb_xgs376mnl2-11" value="have" style="shape=rhombus;perimeter=rhombusPerimeter;whiteSpace=wrap;html=1;align=center;" vertex="1" parent="1">
          <mxGeometry x="577.33" y="880" width="120" height="60" as="geometry" />
        </mxCell>
        <mxCell id="XnMNRkMWb_xgs376mnl2-17" value="" style="endArrow=none;html=1;rounded=0;exitX=1;exitY=0.5;exitDx=0;exitDy=0;entryX=0;entryY=0.5;entryDx=0;entryDy=0;" edge="1" parent="1" source="XnMNRkMWb_xgs376mnl2-11" target="XnMNRkMWb_xgs376mnl2-8">
          <mxGeometry relative="1" as="geometry">
            <mxPoint x="707.33" y="910" as="sourcePoint" />
            <mxPoint x="597.33" y="920" as="targetPoint" />
          </mxGeometry>
        </mxCell>
        <mxCell id="XnMNRkMWb_xgs376mnl2-19" value="N" style="edgeLabel;html=1;align=center;verticalAlign=middle;resizable=0;points=[];" vertex="1" connectable="0" parent="XnMNRkMWb_xgs376mnl2-17">
          <mxGeometry x="-0.4444" y="1" relative="1" as="geometry">
            <mxPoint as="offset" />
          </mxGeometry>
        </mxCell>
        <mxCell id="XnMNRkMWb_xgs376mnl2-20" value="" style="endArrow=none;html=1;rounded=0;exitX=1;exitY=0.75;exitDx=0;exitDy=0;entryX=0;entryY=0.5;entryDx=0;entryDy=0;" edge="1" parent="1" source="XnMNRkMWb_xgs376mnl2-2" target="XnMNRkMWb_xgs376mnl2-11">
          <mxGeometry relative="1" as="geometry">
            <mxPoint x="500" y="900" as="sourcePoint" />
            <mxPoint x="660" y="900" as="targetPoint" />
          </mxGeometry>
        </mxCell>
        <mxCell id="XnMNRkMWb_xgs376mnl2-24" value="M" style="edgeLabel;html=1;align=center;verticalAlign=middle;resizable=0;points=[];" vertex="1" connectable="0" parent="XnMNRkMWb_xgs376mnl2-20">
          <mxGeometry x="0.6272" relative="1" as="geometry">
            <mxPoint as="offset" />
          </mxGeometry>
        </mxCell>
        <mxCell id="XnMNRkMWb_xgs376mnl2-21" value="" style="endArrow=none;html=1;rounded=0;exitX=0.5;exitY=1;exitDx=0;exitDy=0;entryX=0.5;entryY=0;entryDx=0;entryDy=0;" edge="1" parent="1" source="XnMNRkMWb_xgs376mnl2-11" target="XnMNRkMWb_xgs376mnl2-9">
          <mxGeometry relative="1" as="geometry">
            <mxPoint x="507.33" y="1059.55" as="sourcePoint" />
            <mxPoint x="667.33" y="1059.55" as="targetPoint" />
          </mxGeometry>
        </mxCell>
        <mxCell id="XnMNRkMWb_xgs376mnl2-25" value="N" style="edgeLabel;html=1;align=center;verticalAlign=middle;resizable=0;points=[];" vertex="1" connectable="0" parent="XnMNRkMWb_xgs376mnl2-21">
          <mxGeometry x="-0.3045" relative="1" as="geometry">
            <mxPoint x="-4" as="offset" />
          </mxGeometry>
        </mxCell>
        <mxCell id="XnMNRkMWb_xgs376mnl2-22" value="" style="endArrow=none;html=1;rounded=0;exitX=1;exitY=0.5;exitDx=0;exitDy=0;entryX=0;entryY=0.5;entryDx=0;entryDy=0;" edge="1" parent="1" source="XnMNRkMWb_xgs376mnl2-26" target="XnMNRkMWb_xgs376mnl2-4">
          <mxGeometry relative="1" as="geometry">
            <mxPoint x="660" y="680" as="sourcePoint" />
            <mxPoint x="820" y="680" as="targetPoint" />
          </mxGeometry>
        </mxCell>
        <mxCell id="XnMNRkMWb_xgs376mnl2-30" value="N" style="edgeLabel;html=1;align=center;verticalAlign=middle;resizable=0;points=[];" vertex="1" connectable="0" parent="XnMNRkMWb_xgs376mnl2-22">
          <mxGeometry x="-0.5389" y="2" relative="1" as="geometry">
            <mxPoint x="-2" y="-6" as="offset" />
          </mxGeometry>
        </mxCell>
        <mxCell id="XnMNRkMWb_xgs376mnl2-26" value="have" style="shape=rhombus;perimeter=rhombusPerimeter;whiteSpace=wrap;html=1;align=center;" vertex="1" parent="1">
          <mxGeometry x="580" y="700" width="120" height="60" as="geometry" />
        </mxCell>
        <mxCell id="XnMNRkMWb_xgs376mnl2-27" value="" style="endArrow=none;html=1;rounded=0;exitX=1;exitY=0.25;exitDx=0;exitDy=0;entryX=0;entryY=0.5;entryDx=0;entryDy=0;" edge="1" parent="1" source="XnMNRkMWb_xgs376mnl2-2" target="XnMNRkMWb_xgs376mnl2-26">
          <mxGeometry relative="1" as="geometry">
            <mxPoint x="380" y="789.0899999999999" as="sourcePoint" />
            <mxPoint x="540" y="789.0899999999999" as="targetPoint" />
          </mxGeometry>
        </mxCell>
        <mxCell id="XnMNRkMWb_xgs376mnl2-29" value="1" style="edgeLabel;html=1;align=center;verticalAlign=middle;resizable=0;points=[];" vertex="1" connectable="0" parent="XnMNRkMWb_xgs376mnl2-27">
          <mxGeometry x="0.5324" y="3" relative="1" as="geometry">
            <mxPoint x="9" y="-8" as="offset" />
          </mxGeometry>
        </mxCell>
        <mxCell id="XnMNRkMWb_xgs376mnl2-34" value="Title" style="ellipse;whiteSpace=wrap;html=1;align=center;" vertex="1" parent="1">
          <mxGeometry x="460" y="560" width="100" height="40" as="geometry" />
        </mxCell>
        <mxCell id="XnMNRkMWb_xgs376mnl2-35" value="Employment type" style="ellipse;whiteSpace=wrap;html=1;align=center;" vertex="1" parent="1">
          <mxGeometry x="460" y="500" width="100" height="40" as="geometry" />
        </mxCell>
        <mxCell id="XnMNRkMWb_xgs376mnl2-36" value="Company or organization" style="ellipse;whiteSpace=wrap;html=1;align=center;" vertex="1" parent="1">
          <mxGeometry x="720" y="560" width="100" height="40" as="geometry" />
        </mxCell>
        <mxCell id="XnMNRkMWb_xgs376mnl2-37" value="Start date" style="ellipse;whiteSpace=wrap;html=1;align=center;" vertex="1" parent="1">
          <mxGeometry x="590" y="500" width="100" height="40" as="geometry" />
        </mxCell>
        <mxCell id="XnMNRkMWb_xgs376mnl2-38" value="End date" style="ellipse;whiteSpace=wrap;html=1;align=center;" vertex="1" parent="1">
          <mxGeometry x="720" y="500" width="100" height="40" as="geometry" />
        </mxCell>
        <mxCell id="XnMNRkMWb_xgs376mnl2-42" value="" style="endArrow=none;html=1;rounded=0;exitX=0;exitY=0.5;exitDx=0;exitDy=0;entryX=1;entryY=0.5;entryDx=0;entryDy=0;" edge="1" parent="1" source="XnMNRkMWb_xgs376mnl2-10" target="XnMNRkMWb_xgs376mnl2-34">
          <mxGeometry relative="1" as="geometry">
            <mxPoint x="590" y="660" as="sourcePoint" />
            <mxPoint x="750" y="660" as="targetPoint" />
          </mxGeometry>
        </mxCell>
        <mxCell id="XnMNRkMWb_xgs376mnl2-43" value="" style="endArrow=none;html=1;rounded=0;exitX=0;exitY=0;exitDx=0;exitDy=0;entryX=1;entryY=1;entryDx=0;entryDy=0;" edge="1" parent="1" source="XnMNRkMWb_xgs376mnl2-10" target="XnMNRkMWb_xgs376mnl2-35">
          <mxGeometry relative="1" as="geometry">
            <mxPoint x="650" y="610" as="sourcePoint" />
            <mxPoint x="650" y="670" as="targetPoint" />
          </mxGeometry>
        </mxCell>
        <mxCell id="XnMNRkMWb_xgs376mnl2-44" value="" style="endArrow=none;html=1;rounded=0;exitX=1;exitY=0.5;exitDx=0;exitDy=0;entryX=0;entryY=0.5;entryDx=0;entryDy=0;" edge="1" parent="1" source="XnMNRkMWb_xgs376mnl2-10" target="XnMNRkMWb_xgs376mnl2-36">
          <mxGeometry relative="1" as="geometry">
            <mxPoint x="700" y="610" as="sourcePoint" />
            <mxPoint x="730" y="650" as="targetPoint" />
          </mxGeometry>
        </mxCell>
        <mxCell id="XnMNRkMWb_xgs376mnl2-45" value="" style="endArrow=none;html=1;rounded=0;exitX=0.5;exitY=0;exitDx=0;exitDy=0;entryX=0.5;entryY=1;entryDx=0;entryDy=0;" edge="1" parent="1" source="XnMNRkMWb_xgs376mnl2-10" target="XnMNRkMWb_xgs376mnl2-37">
          <mxGeometry relative="1" as="geometry">
            <mxPoint x="700" y="610" as="sourcePoint" />
            <mxPoint x="730" y="650" as="targetPoint" />
          </mxGeometry>
        </mxCell>
        <mxCell id="XnMNRkMWb_xgs376mnl2-46" value="" style="endArrow=none;html=1;rounded=0;exitX=1;exitY=0;exitDx=0;exitDy=0;entryX=0;entryY=1;entryDx=0;entryDy=0;" edge="1" parent="1" source="XnMNRkMWb_xgs376mnl2-10" target="XnMNRkMWb_xgs376mnl2-38">
          <mxGeometry relative="1" as="geometry">
            <mxPoint x="650" y="570" as="sourcePoint" />
            <mxPoint x="650" y="550" as="targetPoint" />
          </mxGeometry>
        </mxCell>
        <mxCell id="XnMNRkMWb_xgs376mnl2-47" value="Name" style="ellipse;whiteSpace=wrap;html=1;align=center;" vertex="1" parent="1">
          <mxGeometry x="450" y="980" width="100" height="40" as="geometry" />
        </mxCell>
        <mxCell id="XnMNRkMWb_xgs376mnl2-48" value="Organization" style="ellipse;whiteSpace=wrap;html=1;align=center;" vertex="1" parent="1">
          <mxGeometry x="450" y="1050" width="100" height="40" as="geometry" />
        </mxCell>
        <mxCell id="XnMNRkMWb_xgs376mnl2-49" value="License&lt;div&gt;Number&lt;/div&gt;" style="ellipse;whiteSpace=wrap;html=1;align=center;" vertex="1" parent="1">
          <mxGeometry x="587.33" y="1050" width="100" height="40" as="geometry" />
        </mxCell>
        <mxCell id="XnMNRkMWb_xgs376mnl2-50" value="Credential ID" style="ellipse;whiteSpace=wrap;html=1;align=center;" vertex="1" parent="1">
          <mxGeometry x="710" y="1050" width="100" height="40" as="geometry" />
        </mxCell>
        <mxCell id="XnMNRkMWb_xgs376mnl2-51" value="Credential URL" style="ellipse;whiteSpace=wrap;html=1;align=center;" vertex="1" parent="1">
          <mxGeometry x="710" y="980" width="100" height="40" as="geometry" />
        </mxCell>
        <mxCell id="XnMNRkMWb_xgs376mnl2-52" value="Date Expire&amp;nbsp;&lt;div&gt;From&lt;/div&gt;" style="ellipse;whiteSpace=wrap;html=1;align=center;" vertex="1" parent="1">
          <mxGeometry x="520" y="1110" width="100" height="40" as="geometry" />
        </mxCell>
        <mxCell id="XnMNRkMWb_xgs376mnl2-53" value="Date Expire&amp;nbsp;&lt;div&gt;End&lt;/div&gt;" style="ellipse;whiteSpace=wrap;html=1;align=center;" vertex="1" parent="1">
          <mxGeometry x="660" y="1110" width="100" height="40" as="geometry" />
        </mxCell>
        <mxCell id="XnMNRkMWb_xgs376mnl2-54" value="" style="endArrow=none;html=1;rounded=0;entryX=1;entryY=0.5;entryDx=0;entryDy=0;exitX=0;exitY=0.5;exitDx=0;exitDy=0;" edge="1" parent="1" source="XnMNRkMWb_xgs376mnl2-9" target="XnMNRkMWb_xgs376mnl2-47">
          <mxGeometry relative="1" as="geometry">
            <mxPoint x="500" y="930" as="sourcePoint" />
            <mxPoint x="530" y="970" as="targetPoint" />
          </mxGeometry>
        </mxCell>
        <mxCell id="XnMNRkMWb_xgs376mnl2-55" value="" style="endArrow=none;html=1;rounded=0;entryX=1;entryY=0.5;entryDx=0;entryDy=0;exitX=0;exitY=1;exitDx=0;exitDy=0;" edge="1" parent="1" source="XnMNRkMWb_xgs376mnl2-9" target="XnMNRkMWb_xgs376mnl2-48">
          <mxGeometry relative="1" as="geometry">
            <mxPoint x="597" y="1010" as="sourcePoint" />
            <mxPoint x="560" y="1010" as="targetPoint" />
          </mxGeometry>
        </mxCell>
        <mxCell id="XnMNRkMWb_xgs376mnl2-56" value="" style="endArrow=none;html=1;rounded=0;entryX=0.5;entryY=0;entryDx=0;entryDy=0;exitX=0;exitY=1;exitDx=0;exitDy=0;" edge="1" parent="1" source="XnMNRkMWb_xgs376mnl2-9" target="XnMNRkMWb_xgs376mnl2-52">
          <mxGeometry relative="1" as="geometry">
            <mxPoint x="597" y="1030" as="sourcePoint" />
            <mxPoint x="560" y="1080" as="targetPoint" />
          </mxGeometry>
        </mxCell>
        <mxCell id="XnMNRkMWb_xgs376mnl2-57" value="" style="endArrow=none;html=1;rounded=0;entryX=0.5;entryY=0;entryDx=0;entryDy=0;exitX=0.5;exitY=1;exitDx=0;exitDy=0;" edge="1" parent="1" source="XnMNRkMWb_xgs376mnl2-9" target="XnMNRkMWb_xgs376mnl2-49">
          <mxGeometry relative="1" as="geometry">
            <mxPoint x="597" y="1030" as="sourcePoint" />
            <mxPoint x="580" y="1120" as="targetPoint" />
          </mxGeometry>
        </mxCell>
        <mxCell id="XnMNRkMWb_xgs376mnl2-58" value="" style="endArrow=none;html=1;rounded=0;entryX=0.467;entryY=-0.046;entryDx=0;entryDy=0;exitX=1;exitY=1;exitDx=0;exitDy=0;entryPerimeter=0;" edge="1" parent="1" source="XnMNRkMWb_xgs376mnl2-9" target="XnMNRkMWb_xgs376mnl2-53">
          <mxGeometry relative="1" as="geometry">
            <mxPoint x="647" y="1030" as="sourcePoint" />
            <mxPoint x="647" y="1060" as="targetPoint" />
          </mxGeometry>
        </mxCell>
        <mxCell id="XnMNRkMWb_xgs376mnl2-59" value="" style="endArrow=none;html=1;rounded=0;entryX=0.5;entryY=0;entryDx=0;entryDy=0;exitX=1;exitY=1;exitDx=0;exitDy=0;" edge="1" parent="1" source="XnMNRkMWb_xgs376mnl2-9" target="XnMNRkMWb_xgs376mnl2-50">
          <mxGeometry relative="1" as="geometry">
            <mxPoint x="697" y="1030" as="sourcePoint" />
            <mxPoint x="717" y="1118" as="targetPoint" />
          </mxGeometry>
        </mxCell>
        <mxCell id="XnMNRkMWb_xgs376mnl2-60" value="" style="endArrow=none;html=1;rounded=0;entryX=0;entryY=0.5;entryDx=0;entryDy=0;exitX=1;exitY=0.5;exitDx=0;exitDy=0;" edge="1" parent="1" source="XnMNRkMWb_xgs376mnl2-9" target="XnMNRkMWb_xgs376mnl2-51">
          <mxGeometry relative="1" as="geometry">
            <mxPoint x="697" y="1030" as="sourcePoint" />
            <mxPoint x="770" y="1060" as="targetPoint" />
          </mxGeometry>
        </mxCell>
        <mxCell id="XnMNRkMWb_xgs376mnl2-63" value="Name" style="ellipse;whiteSpace=wrap;html=1;align=center;" vertex="1" parent="1">
          <mxGeometry x="860" y="890" width="100" height="40" as="geometry" />
        </mxCell>
        <mxCell id="XnMNRkMWb_xgs376mnl2-64" value="" style="endArrow=none;html=1;rounded=0;entryX=0;entryY=0.5;entryDx=0;entryDy=0;exitX=1;exitY=0.5;exitDx=0;exitDy=0;" edge="1" parent="1" target="XnMNRkMWb_xgs376mnl2-63" source="XnMNRkMWb_xgs376mnl2-8">
          <mxGeometry relative="1" as="geometry">
            <mxPoint x="987" y="960" as="sourcePoint" />
            <mxPoint x="930" y="930" as="targetPoint" />
          </mxGeometry>
        </mxCell>
        <mxCell id="XnMNRkMWb_xgs376mnl2-65" value="" style="endArrow=none;html=1;rounded=0;exitX=0.5;exitY=1;exitDx=0;exitDy=0;entryX=0.5;entryY=0;entryDx=0;entryDy=0;" edge="1" parent="1" source="XnMNRkMWb_xgs376mnl2-10" target="XnMNRkMWb_xgs376mnl2-26">
          <mxGeometry relative="1" as="geometry">
            <mxPoint x="638.82" y="620" as="sourcePoint" />
            <mxPoint x="638.82" y="680" as="targetPoint" />
          </mxGeometry>
        </mxCell>
        <mxCell id="XnMNRkMWb_xgs376mnl2-66" value="N" style="edgeLabel;html=1;align=center;verticalAlign=middle;resizable=0;points=[];" vertex="1" connectable="0" parent="XnMNRkMWb_xgs376mnl2-65">
          <mxGeometry x="-0.5389" y="2" relative="1" as="geometry">
            <mxPoint x="-2" y="67" as="offset" />
          </mxGeometry>
        </mxCell>
        <mxCell id="XnMNRkMWb_xgs376mnl2-67" value="School" style="ellipse;whiteSpace=wrap;html=1;align=center;" vertex="1" parent="1">
          <mxGeometry x="640" y="780" width="100" height="40" as="geometry" />
        </mxCell>
        <mxCell id="XnMNRkMWb_xgs376mnl2-68" value="" style="endArrow=none;html=1;rounded=0;exitX=0;exitY=1;exitDx=0;exitDy=0;entryX=0.5;entryY=0;entryDx=0;entryDy=0;" edge="1" parent="1" source="XnMNRkMWb_xgs376mnl2-4" target="XnMNRkMWb_xgs376mnl2-67">
          <mxGeometry relative="1" as="geometry">
            <mxPoint x="600" y="640" as="sourcePoint" />
            <mxPoint x="570" y="640" as="targetPoint" />
          </mxGeometry>
        </mxCell>
        <mxCell id="XnMNRkMWb_xgs376mnl2-69" value="Degree" style="ellipse;whiteSpace=wrap;html=1;align=center;" vertex="1" parent="1">
          <mxGeometry x="760" y="780" width="100" height="40" as="geometry" />
        </mxCell>
        <mxCell id="XnMNRkMWb_xgs376mnl2-70" value="&lt;div&gt;Field of study&lt;/div&gt;" style="ellipse;whiteSpace=wrap;html=1;align=center;" vertex="1" parent="1">
          <mxGeometry x="880" y="780" width="100" height="40" as="geometry" />
        </mxCell>
        <mxCell id="XnMNRkMWb_xgs376mnl2-71" value="" style="endArrow=none;html=1;rounded=0;exitX=0.5;exitY=1;exitDx=0;exitDy=0;entryX=0.5;entryY=0;entryDx=0;entryDy=0;" edge="1" parent="1" source="XnMNRkMWb_xgs376mnl2-4" target="XnMNRkMWb_xgs376mnl2-69">
          <mxGeometry relative="1" as="geometry">
            <mxPoint x="770" y="760" as="sourcePoint" />
            <mxPoint x="700" y="790" as="targetPoint" />
          </mxGeometry>
        </mxCell>
        <mxCell id="XnMNRkMWb_xgs376mnl2-72" value="" style="endArrow=none;html=1;rounded=0;exitX=1;exitY=1;exitDx=0;exitDy=0;entryX=0.5;entryY=0;entryDx=0;entryDy=0;" edge="1" parent="1" source="XnMNRkMWb_xgs376mnl2-4" target="XnMNRkMWb_xgs376mnl2-70">
          <mxGeometry relative="1" as="geometry">
            <mxPoint x="820" y="760" as="sourcePoint" />
            <mxPoint x="820" y="790" as="targetPoint" />
          </mxGeometry>
        </mxCell>
        <mxCell id="XnMNRkMWb_xgs376mnl2-73" value="End date" style="ellipse;whiteSpace=wrap;html=1;align=center;" vertex="1" parent="1">
          <mxGeometry x="880" y="710" width="100" height="40" as="geometry" />
        </mxCell>
        <mxCell id="XnMNRkMWb_xgs376mnl2-74" value="Start date" style="ellipse;whiteSpace=wrap;html=1;align=center;" vertex="1" parent="1">
          <mxGeometry x="880" y="640" width="100" height="40" as="geometry" />
        </mxCell>
        <mxCell id="XnMNRkMWb_xgs376mnl2-75" value="Grade" style="ellipse;whiteSpace=wrap;html=1;align=center;" vertex="1" parent="1">
          <mxGeometry x="760" y="640" width="100" height="40" as="geometry" />
        </mxCell>
        <mxCell id="XnMNRkMWb_xgs376mnl2-76" value="" style="endArrow=none;html=1;rounded=0;exitX=0.5;exitY=1;exitDx=0;exitDy=0;entryX=0.5;entryY=0;entryDx=0;entryDy=0;" edge="1" parent="1" source="XnMNRkMWb_xgs376mnl2-75" target="XnMNRkMWb_xgs376mnl2-4">
          <mxGeometry relative="1" as="geometry">
            <mxPoint x="770" y="760" as="sourcePoint" />
            <mxPoint x="700" y="790" as="targetPoint" />
          </mxGeometry>
        </mxCell>
        <mxCell id="XnMNRkMWb_xgs376mnl2-77" value="" style="endArrow=none;html=1;rounded=0;exitX=0.5;exitY=1;exitDx=0;exitDy=0;entryX=1;entryY=0;entryDx=0;entryDy=0;" edge="1" parent="1" source="XnMNRkMWb_xgs376mnl2-74" target="XnMNRkMWb_xgs376mnl2-4">
          <mxGeometry relative="1" as="geometry">
            <mxPoint x="820" y="690" as="sourcePoint" />
            <mxPoint x="820" y="720" as="targetPoint" />
          </mxGeometry>
        </mxCell>
        <mxCell id="XnMNRkMWb_xgs376mnl2-78" value="" style="endArrow=none;html=1;rounded=0;exitX=0;exitY=0.5;exitDx=0;exitDy=0;entryX=1;entryY=0.5;entryDx=0;entryDy=0;" edge="1" parent="1" source="XnMNRkMWb_xgs376mnl2-73" target="XnMNRkMWb_xgs376mnl2-4">
          <mxGeometry relative="1" as="geometry">
            <mxPoint x="940" y="690" as="sourcePoint" />
            <mxPoint x="870" y="720" as="targetPoint" />
          </mxGeometry>
        </mxCell>
        <mxCell id="XnMNRkMWb_xgs376mnl2-79" value="Social Media&amp;nbsp;&lt;div&gt;Link&lt;/div&gt;" style="ellipse;whiteSpace=wrap;html=1;align=center;" vertex="1" parent="1">
          <mxGeometry x="310" y="870" width="100" height="40" as="geometry" />
        </mxCell>
        <mxCell id="XnMNRkMWb_xgs376mnl2-80" value="Date of Born" style="ellipse;whiteSpace=wrap;html=1;align=center;" vertex="1" parent="1">
          <mxGeometry x="375" y="670" width="100" height="40" as="geometry" />
        </mxCell>
        <mxCell id="XnMNRkMWb_xgs376mnl2-81" value="" style="endArrow=none;html=1;rounded=0;exitX=0.5;exitY=0;exitDx=0;exitDy=0;entryX=0.5;entryY=1;entryDx=0;entryDy=0;" edge="1" parent="1" source="XnMNRkMWb_xgs376mnl2-2" target="XnMNRkMWb_xgs376mnl2-80">
          <mxGeometry relative="1" as="geometry">
            <mxPoint x="600" y="590" as="sourcePoint" />
            <mxPoint x="570" y="590" as="targetPoint" />
          </mxGeometry>
        </mxCell>
        <mxCell id="XnMNRkMWb_xgs376mnl2-82" value="" style="endArrow=none;html=1;rounded=0;exitX=0.25;exitY=0;exitDx=0;exitDy=0;entryX=0.5;entryY=1;entryDx=0;entryDy=0;" edge="1" parent="1" source="XnMNRkMWb_xgs376mnl2-2" target="XnMNRkMWb_xgs376mnl2-5">
          <mxGeometry relative="1" as="geometry">
            <mxPoint x="435" y="810" as="sourcePoint" />
            <mxPoint x="435" y="700" as="targetPoint" />
          </mxGeometry>
        </mxCell>
        <mxCell id="XnMNRkMWb_xgs376mnl2-83" value="" style="endArrow=none;html=1;rounded=0;exitX=0.75;exitY=0;exitDx=0;exitDy=0;entryX=0.5;entryY=1;entryDx=0;entryDy=0;" edge="1" parent="1" source="XnMNRkMWb_xgs376mnl2-2" target="XnMNRkMWb_xgs376mnl2-6">
          <mxGeometry relative="1" as="geometry">
            <mxPoint x="410" y="810" as="sourcePoint" />
            <mxPoint x="370" y="770" as="targetPoint" />
          </mxGeometry>
        </mxCell>
        <mxCell id="XnMNRkMWb_xgs376mnl2-84" value="" style="endArrow=none;html=1;rounded=0;exitX=0.25;exitY=1;exitDx=0;exitDy=0;entryX=0.5;entryY=0;entryDx=0;entryDy=0;" edge="1" parent="1" source="XnMNRkMWb_xgs376mnl2-2" target="XnMNRkMWb_xgs376mnl2-79">
          <mxGeometry relative="1" as="geometry">
            <mxPoint x="410" y="810" as="sourcePoint" />
            <mxPoint x="370" y="770" as="targetPoint" />
          </mxGeometry>
        </mxCell>
        <mxCell id="XnMNRkMWb_xgs376mnl2-85" value="" style="endArrow=none;html=1;rounded=0;exitX=0.75;exitY=1;exitDx=0;exitDy=0;entryX=0.5;entryY=0;entryDx=0;entryDy=0;" edge="1" parent="1" source="XnMNRkMWb_xgs376mnl2-2" target="XnMNRkMWb_xgs376mnl2-7">
          <mxGeometry relative="1" as="geometry">
            <mxPoint x="410" y="850" as="sourcePoint" />
            <mxPoint x="370" y="880" as="targetPoint" />
          </mxGeometry>
        </mxCell>
        <mxCell id="XnMNRkMWb_xgs376mnl2-86" value="Job Vacancy" style="rounded=1;arcSize=10;whiteSpace=wrap;html=1;align=center;" vertex="1" parent="1">
          <mxGeometry x="40" y="800" width="100" height="40" as="geometry" />
        </mxCell>
        <mxCell id="XnMNRkMWb_xgs376mnl2-87" value="Create" style="shape=rhombus;perimeter=rhombusPerimeter;whiteSpace=wrap;html=1;align=center;" vertex="1" parent="1">
          <mxGeometry x="-140" y="790" width="120" height="60" as="geometry" />
        </mxCell>
        <mxCell id="XnMNRkMWb_xgs376mnl2-88" value="" style="endArrow=none;html=1;rounded=0;entryX=0;entryY=0.5;entryDx=0;entryDy=0;" edge="1" parent="1" source="XnMNRkMWb_xgs376mnl2-101" target="XnMNRkMWb_xgs376mnl2-87">
          <mxGeometry relative="1" as="geometry">
            <mxPoint x="-190" y="820" as="sourcePoint" />
            <mxPoint x="192" y="930" as="targetPoint" />
          </mxGeometry>
        </mxCell>
        <mxCell id="XnMNRkMWb_xgs376mnl2-89" value="M" style="edgeLabel;html=1;align=center;verticalAlign=middle;resizable=0;points=[];" vertex="1" connectable="0" parent="XnMNRkMWb_xgs376mnl2-88">
          <mxGeometry x="0.6272" relative="1" as="geometry">
            <mxPoint as="offset" />
          </mxGeometry>
        </mxCell>
        <mxCell id="XnMNRkMWb_xgs376mnl2-90" value="" style="endArrow=none;html=1;rounded=0;entryX=0;entryY=0.5;entryDx=0;entryDy=0;exitX=1;exitY=0.5;exitDx=0;exitDy=0;" edge="1" parent="1" source="XnMNRkMWb_xgs376mnl2-87" target="XnMNRkMWb_xgs376mnl2-86">
          <mxGeometry relative="1" as="geometry">
            <mxPoint x="-50" y="970" as="sourcePoint" />
            <mxPoint x="187" y="990" as="targetPoint" />
          </mxGeometry>
        </mxCell>
        <mxCell id="XnMNRkMWb_xgs376mnl2-91" value="N" style="edgeLabel;html=1;align=center;verticalAlign=middle;resizable=0;points=[];" vertex="1" connectable="0" parent="XnMNRkMWb_xgs376mnl2-90">
          <mxGeometry x="-0.3045" relative="1" as="geometry">
            <mxPoint x="-14" as="offset" />
          </mxGeometry>
        </mxCell>
        <mxCell id="XnMNRkMWb_xgs376mnl2-92" value="Apply" style="shape=rhombus;perimeter=rhombusPerimeter;whiteSpace=wrap;html=1;align=center;" vertex="1" parent="1">
          <mxGeometry x="180" y="790" width="120" height="60" as="geometry" />
        </mxCell>
        <mxCell id="XnMNRkMWb_xgs376mnl2-94" value="" style="endArrow=none;html=1;rounded=0;entryX=1;entryY=0.5;entryDx=0;entryDy=0;exitX=0;exitY=0.5;exitDx=0;exitDy=0;" edge="1" parent="1" source="XnMNRkMWb_xgs376mnl2-92" target="XnMNRkMWb_xgs376mnl2-86">
          <mxGeometry relative="1" as="geometry">
            <mxPoint x="300" y="820" as="sourcePoint" />
            <mxPoint x="370" y="820" as="targetPoint" />
          </mxGeometry>
        </mxCell>
        <mxCell id="XnMNRkMWb_xgs376mnl2-95" value="N" style="edgeLabel;html=1;align=center;verticalAlign=middle;resizable=0;points=[];" vertex="1" connectable="0" parent="XnMNRkMWb_xgs376mnl2-94">
          <mxGeometry x="-0.3045" relative="1" as="geometry">
            <mxPoint x="18" as="offset" />
          </mxGeometry>
        </mxCell>
        <mxCell id="XnMNRkMWb_xgs376mnl2-96" value="" style="endArrow=none;html=1;rounded=0;exitX=0;exitY=0.5;exitDx=0;exitDy=0;entryX=1;entryY=0.5;entryDx=0;entryDy=0;" edge="1" parent="1" source="XnMNRkMWb_xgs376mnl2-2" target="XnMNRkMWb_xgs376mnl2-92">
          <mxGeometry relative="1" as="geometry">
            <mxPoint x="310" y="840" as="sourcePoint" />
            <mxPoint x="350" y="840" as="targetPoint" />
          </mxGeometry>
        </mxCell>
        <mxCell id="XnMNRkMWb_xgs376mnl2-97" value="M" style="edgeLabel;html=1;align=center;verticalAlign=middle;resizable=0;points=[];" vertex="1" connectable="0" parent="XnMNRkMWb_xgs376mnl2-96">
          <mxGeometry x="0.6272" relative="1" as="geometry">
            <mxPoint as="offset" />
          </mxGeometry>
        </mxCell>
        <mxCell id="XnMNRkMWb_xgs376mnl2-101" value="Rekruter" style="rounded=1;arcSize=10;whiteSpace=wrap;html=1;align=center;" vertex="1" parent="1">
          <mxGeometry x="-295" y="800" width="100" height="40" as="geometry" />
        </mxCell>
        <mxCell id="XnMNRkMWb_xgs376mnl2-102" value="Name" style="ellipse;whiteSpace=wrap;html=1;align=center;" vertex="1" parent="1">
          <mxGeometry x="-360" y="740" width="100" height="40" as="geometry" />
        </mxCell>
        <mxCell id="XnMNRkMWb_xgs376mnl2-103" value="Number Phone" style="ellipse;whiteSpace=wrap;html=1;align=center;" vertex="1" parent="1">
          <mxGeometry x="-230" y="740" width="100" height="40" as="geometry" />
        </mxCell>
        <mxCell id="XnMNRkMWb_xgs376mnl2-104" value="Email" style="ellipse;whiteSpace=wrap;html=1;align=center;" vertex="1" parent="1">
          <mxGeometry x="-230" y="870" width="100" height="40" as="geometry" />
        </mxCell>
        <mxCell id="XnMNRkMWb_xgs376mnl2-107" value="Social Media&amp;nbsp;&lt;div&gt;Link&lt;/div&gt;" style="ellipse;whiteSpace=wrap;html=1;align=center;" vertex="1" parent="1">
          <mxGeometry x="-360" y="870" width="100" height="40" as="geometry" />
        </mxCell>
        <mxCell id="XnMNRkMWb_xgs376mnl2-108" value="Date of Born" style="ellipse;whiteSpace=wrap;html=1;align=center;" vertex="1" parent="1">
          <mxGeometry x="-440" y="800" width="100" height="40" as="geometry" />
        </mxCell>
        <mxCell id="XnMNRkMWb_xgs376mnl2-109" value="" style="endArrow=none;html=1;rounded=0;exitX=0;exitY=0.5;exitDx=0;exitDy=0;entryX=1;entryY=0.5;entryDx=0;entryDy=0;" edge="1" source="XnMNRkMWb_xgs376mnl2-101" target="XnMNRkMWb_xgs376mnl2-108" parent="1">
          <mxGeometry relative="1" as="geometry">
            <mxPoint x="-70" y="590" as="sourcePoint" />
            <mxPoint x="-100" y="590" as="targetPoint" />
          </mxGeometry>
        </mxCell>
        <mxCell id="XnMNRkMWb_xgs376mnl2-110" value="" style="endArrow=none;html=1;rounded=0;exitX=0.25;exitY=0;exitDx=0;exitDy=0;entryX=0.5;entryY=1;entryDx=0;entryDy=0;" edge="1" source="XnMNRkMWb_xgs376mnl2-101" target="XnMNRkMWb_xgs376mnl2-102" parent="1">
          <mxGeometry relative="1" as="geometry">
            <mxPoint x="-235" y="810" as="sourcePoint" />
            <mxPoint x="-235" y="700" as="targetPoint" />
          </mxGeometry>
        </mxCell>
        <mxCell id="XnMNRkMWb_xgs376mnl2-111" value="" style="endArrow=none;html=1;rounded=0;exitX=0.75;exitY=0;exitDx=0;exitDy=0;entryX=0.5;entryY=1;entryDx=0;entryDy=0;" edge="1" source="XnMNRkMWb_xgs376mnl2-101" target="XnMNRkMWb_xgs376mnl2-103" parent="1">
          <mxGeometry relative="1" as="geometry">
            <mxPoint x="-260" y="810" as="sourcePoint" />
            <mxPoint x="-300" y="770" as="targetPoint" />
          </mxGeometry>
        </mxCell>
        <mxCell id="XnMNRkMWb_xgs376mnl2-112" value="" style="endArrow=none;html=1;rounded=0;exitX=0.25;exitY=1;exitDx=0;exitDy=0;entryX=0.5;entryY=0;entryDx=0;entryDy=0;" edge="1" source="XnMNRkMWb_xgs376mnl2-101" target="XnMNRkMWb_xgs376mnl2-107" parent="1">
          <mxGeometry relative="1" as="geometry">
            <mxPoint x="-260" y="810" as="sourcePoint" />
            <mxPoint x="-300" y="770" as="targetPoint" />
          </mxGeometry>
        </mxCell>
        <mxCell id="XnMNRkMWb_xgs376mnl2-113" value="" style="endArrow=none;html=1;rounded=0;exitX=0.75;exitY=1;exitDx=0;exitDy=0;entryX=0.5;entryY=0;entryDx=0;entryDy=0;" edge="1" source="XnMNRkMWb_xgs376mnl2-101" target="XnMNRkMWb_xgs376mnl2-104" parent="1">
          <mxGeometry relative="1" as="geometry">
            <mxPoint x="-260" y="850" as="sourcePoint" />
            <mxPoint x="-300" y="880" as="targetPoint" />
          </mxGeometry>
        </mxCell>
        <mxCell id="XnMNRkMWb_xgs376mnl2-118" value="Job Position" style="ellipse;whiteSpace=wrap;html=1;align=center;" vertex="1" parent="1">
          <mxGeometry x="40" y="730" width="100" height="40" as="geometry" />
        </mxCell>
        <mxCell id="XnMNRkMWb_xgs376mnl2-119" value="Employment type" style="ellipse;whiteSpace=wrap;html=1;align=center;" vertex="1" parent="1">
          <mxGeometry x="-80" y="730" width="100" height="40" as="geometry" />
        </mxCell>
        <mxCell id="XnMNRkMWb_xgs376mnl2-120" value="Branch Office" style="ellipse;whiteSpace=wrap;html=1;align=center;" vertex="1" parent="1">
          <mxGeometry x="160" y="730" width="100" height="40" as="geometry" />
        </mxCell>
        <mxCell id="XnMNRkMWb_xgs376mnl2-121" value="Start date" style="ellipse;whiteSpace=wrap;html=1;align=center;" vertex="1" parent="1">
          <mxGeometry x="-80" y="880" width="100" height="40" as="geometry" />
        </mxCell>
        <mxCell id="XnMNRkMWb_xgs376mnl2-122" value="Salary" style="ellipse;whiteSpace=wrap;html=1;align=center;" vertex="1" parent="1">
          <mxGeometry x="40" y="880" width="100" height="40" as="geometry" />
        </mxCell>
        <mxCell id="XnMNRkMWb_xgs376mnl2-123" value="" style="endArrow=none;html=1;rounded=0;exitX=0.5;exitY=0;exitDx=0;exitDy=0;entryX=0.5;entryY=1;entryDx=0;entryDy=0;" edge="1" source="XnMNRkMWb_xgs376mnl2-86" target="XnMNRkMWb_xgs376mnl2-118" parent="1">
          <mxGeometry relative="1" as="geometry">
            <mxPoint x="60" y="700" as="sourcePoint" />
            <mxPoint x="220" y="780" as="targetPoint" />
          </mxGeometry>
        </mxCell>
        <mxCell id="XnMNRkMWb_xgs376mnl2-124" value="" style="endArrow=none;html=1;rounded=0;exitX=0.25;exitY=0;exitDx=0;exitDy=0;entryX=1;entryY=1;entryDx=0;entryDy=0;" edge="1" source="XnMNRkMWb_xgs376mnl2-86" target="XnMNRkMWb_xgs376mnl2-119" parent="1">
          <mxGeometry relative="1" as="geometry">
            <mxPoint x="60" y="680" as="sourcePoint" />
            <mxPoint x="120" y="790" as="targetPoint" />
          </mxGeometry>
        </mxCell>
        <mxCell id="XnMNRkMWb_xgs376mnl2-125" value="" style="endArrow=none;html=1;rounded=0;exitX=0.75;exitY=0;exitDx=0;exitDy=0;entryX=0;entryY=0.5;entryDx=0;entryDy=0;" edge="1" source="XnMNRkMWb_xgs376mnl2-86" target="XnMNRkMWb_xgs376mnl2-120" parent="1">
          <mxGeometry relative="1" as="geometry">
            <mxPoint x="160" y="700" as="sourcePoint" />
            <mxPoint x="200" y="770" as="targetPoint" />
          </mxGeometry>
        </mxCell>
        <mxCell id="XnMNRkMWb_xgs376mnl2-126" value="" style="endArrow=none;html=1;rounded=0;exitX=0.25;exitY=1;exitDx=0;exitDy=0;entryX=1;entryY=0;entryDx=0;entryDy=0;" edge="1" source="XnMNRkMWb_xgs376mnl2-86" target="XnMNRkMWb_xgs376mnl2-121" parent="1">
          <mxGeometry relative="1" as="geometry">
            <mxPoint x="-30" y="940" as="sourcePoint" />
            <mxPoint x="10" y="890" as="targetPoint" />
          </mxGeometry>
        </mxCell>
        <mxCell id="XnMNRkMWb_xgs376mnl2-127" value="" style="endArrow=none;html=1;rounded=0;exitX=0.5;exitY=1;exitDx=0;exitDy=0;entryX=0.5;entryY=0;entryDx=0;entryDy=0;" edge="1" source="XnMNRkMWb_xgs376mnl2-86" target="XnMNRkMWb_xgs376mnl2-122" parent="1">
          <mxGeometry relative="1" as="geometry">
            <mxPoint x="20" y="940" as="sourcePoint" />
            <mxPoint x="-20" y="930" as="targetPoint" />
          </mxGeometry>
        </mxCell>
        <mxCell id="XnMNRkMWb_xgs376mnl2-128" value="Location Office" style="ellipse;whiteSpace=wrap;html=1;align=center;" vertex="1" parent="1">
          <mxGeometry x="160" y="880" width="100" height="40" as="geometry" />
        </mxCell>
        <mxCell id="XnMNRkMWb_xgs376mnl2-130" value="" style="endArrow=none;html=1;rounded=0;exitX=0.75;exitY=1;exitDx=0;exitDy=0;entryX=0;entryY=0;entryDx=0;entryDy=0;" edge="1" parent="1" source="XnMNRkMWb_xgs376mnl2-86" target="XnMNRkMWb_xgs376mnl2-128">
          <mxGeometry relative="1" as="geometry">
            <mxPoint x="170" y="690" as="sourcePoint" />
            <mxPoint x="215" y="664" as="targetPoint" />
          </mxGeometry>
        </mxCell>
        <mxCell id="XnMNRkMWb_xgs376mnl2-131" value="Start date" style="ellipse;whiteSpace=wrap;html=1;align=center;" vertex="1" parent="1">
          <mxGeometry x="-40" y="930" width="100" height="40" as="geometry" />
        </mxCell>
        <mxCell id="XnMNRkMWb_xgs376mnl2-132" value="" style="endArrow=none;html=1;rounded=0;exitX=0.25;exitY=1;exitDx=0;exitDy=0;entryX=0.5;entryY=0;entryDx=0;entryDy=0;" edge="1" parent="1" source="XnMNRkMWb_xgs376mnl2-86" target="XnMNRkMWb_xgs376mnl2-131">
          <mxGeometry relative="1" as="geometry">
            <mxPoint x="100" y="850" as="sourcePoint" />
            <mxPoint x="100" y="890" as="targetPoint" />
          </mxGeometry>
        </mxCell>
      </root>
    </mxGraphModel>
  </diagram>
</mxfile>
